<svg version="1.1" id="Layer_1" xmlns="http://www.w3.org/2000/svg" xmlns:xlink="http://www.w3.org/1999/xlink" x="0px" y="0px"
	 width="100%" viewBox="0 0 320 320" enable-background="new 0 0 320 320" xml:space="preserve">
<path fill="#000000" opacity="1.000000" stroke="none" 
	d="
M181.000000,321.000000 
	C120.666687,321.000000 60.833378,321.000000 1.000048,321.000000 
	C1.000032,214.333389 1.000032,107.666786 1.000016,1.000134 
	C107.666565,1.000089 214.333130,1.000089 320.999756,1.000045 
	C320.999847,107.666534 320.999847,214.333069 320.999939,320.999817 
	C274.500000,321.000000 228.000000,321.000000 181.000000,321.000000 
M250.963577,150.122833 
	C250.963577,143.905411 250.963577,137.687988 250.963577,130.851425 
	C247.326782,130.851425 244.235062,130.851425 241.034241,129.960159 
	C241.034241,127.050987 241.034241,124.141823 241.034241,120.782051 
	C233.895477,120.782051 227.640060,120.782051 220.939728,120.782051 
	C220.939728,97.389969 220.939728,74.469666 220.939728,50.856743 
	C217.382843,50.856743 214.265762,50.856743 211.035507,49.966488 
	C211.035507,47.098679 211.035507,44.230869 211.035507,40.851479 
	C207.269760,40.851479 204.206573,40.851479 201.034256,39.960209 
	C201.034256,37.079197 201.034256,34.198181 201.034256,30.851408 
	C193.885773,30.851408 187.514542,30.851408 181.034241,29.960138 
	C181.034241,27.057207 181.034241,24.154274 181.034241,21.271437 
	C163.954666,21.271437 147.741943,21.271437 130.856750,21.271437 
	C130.856750,24.639204 130.856750,27.745275 129.944748,30.965034 
	C123.697754,30.965034 117.450752,30.965034 110.962517,30.965034 
	C110.962517,34.835747 110.962517,37.827824 110.060493,40.972359 
	C107.143936,40.972359 104.227379,40.972359 100.967819,40.972359 
	C100.967819,44.669666 100.967819,47.778225 100.057327,50.988644 
	C97.122925,50.988644 94.188515,50.988644 91.159142,50.988644 
	C91.159142,58.026955 91.159142,64.493065 91.024117,71.893021 
	C90.985901,88.222122 90.947693,104.551216 89.988449,120.971573 
	C83.802872,120.971573 77.617287,120.971573 70.987244,120.971573 
	C70.987244,124.696358 70.987244,127.780006 70.077934,130.986328 
	C67.174706,130.986328 64.271477,130.986328 61.165291,130.986328 
	C61.165291,137.951584 61.165291,144.466019 61.019711,151.879715 
	C61.067566,154.909805 61.115425,157.939911 61.024746,161.902008 
	C61.024746,184.825653 61.024746,207.749298 61.024746,231.178314 
	C64.697830,231.178314 67.828812,231.178314 70.990189,232.070160 
	C70.990189,234.958282 70.990189,237.846405 70.990189,240.955719 
	C81.539665,240.955719 91.265877,240.955719 100.997894,241.898560 
	C100.997894,264.775635 100.997894,287.652740 100.997894,310.858612 
	C118.086357,310.858612 134.504074,310.858612 151.841385,310.949615 
	C154.920349,310.919281 157.999298,310.888947 162.000473,310.962646 
	C174.974274,310.927948 187.948059,310.893250 201.842697,310.949158 
	C212.212738,310.896362 210.949112,312.554810 210.948898,301.899872 
	C210.948898,301.572235 210.893021,301.244568 210.966583,299.995239 
	C210.973114,280.316559 210.979645,260.637878 211.925613,240.991440 
	C221.457123,240.991440 230.988632,240.991440 241.148575,240.991440 
	C241.148575,237.332916 241.148575,234.238129 242.039841,231.034241 
	C244.943497,231.034241 247.847153,231.034241 250.847305,231.034241 
	C250.847305,207.090942 250.847305,184.015060 250.976532,160.049606 
	C250.933487,157.053436 250.890427,154.057251 250.963577,150.122833 
z"/>
<path fill="#996F29" opacity="1.000000" stroke="none" 
	d="
M211.148666,50.856743 
	C214.265762,50.856743 217.382843,50.856743 220.939728,50.856743 
	C220.939728,74.469666 220.939728,97.389969 220.939728,120.782051 
	C227.640060,120.782051 233.895477,120.782051 241.034241,120.782051 
	C241.034241,124.141823 241.034241,127.050987 241.007431,130.488663 
	C240.980621,131.017166 240.817474,131.182526 240.365067,131.119675 
	C233.720413,131.056824 227.528152,131.056824 221.286362,131.056824 
	C221.061401,134.751877 220.885040,137.648361 220.679016,141.032349 
	C217.166733,141.032349 214.066391,141.032349 210.977554,140.561798 
	C210.940048,120.379028 210.891022,100.666832 210.900803,80.507828 
	C210.920425,77.055832 210.881226,74.050636 210.895569,70.576996 
	C210.905350,63.799995 210.861588,57.491440 210.900452,51.101254 
	C210.983063,51.019623 211.148666,50.856743 211.148666,50.856743 
z"/>
<path fill="#658825" opacity="1.000000" stroke="none" 
	d="
M150.921783,310.858612 
	C134.504074,310.858612 118.086357,310.858612 100.997894,310.858612 
	C100.997894,287.652740 100.997894,264.775635 101.003799,241.444046 
	C101.009705,240.989532 100.976639,240.992844 101.433495,240.994873 
	C104.944443,241.044769 107.998543,241.092636 111.037155,241.600098 
	C111.014694,260.033081 111.111183,278.007568 110.920235,295.979004 
	C110.878082,299.945953 112.130104,301.151428 116.051353,301.077698 
	C127.696686,300.858612 139.348770,300.998535 150.998703,301.449402 
	C150.973389,304.886658 150.947586,307.872620 150.921783,310.858612 
z"/>
<path fill="#D0A54A" opacity="1.000000" stroke="none" 
	d="
M70.959801,231.178314 
	C67.828812,231.178314 64.697830,231.178314 61.024746,231.178314 
	C61.024746,207.749298 61.024746,184.825653 61.534946,161.444138 
	C64.999084,161.020844 67.953018,161.055420 70.938309,161.548752 
	C70.987007,184.902420 71.004341,207.797302 70.977005,230.810013 
	C70.932343,230.927826 70.959801,231.178314 70.959801,231.178314 
z"/>
<path fill="#D0A54A" opacity="1.000000" stroke="none" 
	d="
M90.909477,120.880318 
	C90.947693,104.551216 90.985901,88.222122 91.534561,71.437988 
	C95.021072,71.008728 97.997154,71.034492 100.981903,71.034180 
	C100.990570,71.008102 100.938568,71.012024 100.959183,71.463760 
	C101.019341,74.921715 101.058876,77.927925 101.071198,81.406204 
	C101.035286,101.591385 101.026596,121.304504 100.559845,141.011810 
	C89.778244,140.853592 91.122269,142.315140 90.998581,131.945435 
	C90.994705,131.620438 90.995956,131.295395 90.996338,130.514832 
	C90.968414,126.999634 90.938942,123.939980 90.909477,120.880318 
z"/>
<path fill="#996F29" opacity="1.000000" stroke="none" 
	d="
M250.847305,160.939194 
	C250.847305,184.015060 250.847305,207.090942 250.847305,231.034241 
	C247.847153,231.034241 244.943497,231.034241 241.511337,231.007431 
	C240.982834,230.980621 240.817474,230.817474 240.880341,230.364899 
	C241.029221,206.951187 241.115219,183.990021 241.638611,161.020187 
	C244.999756,160.987396 247.923538,160.963303 250.847305,160.939194 
z"/>
<path fill="#6F8C39" opacity="1.000000" stroke="none" 
	d="
M210.986176,240.959198 
	C210.979645,260.637878 210.973114,280.316559 210.472809,300.481201 
	C207.018433,301.028595 204.057831,301.090057 201.052368,301.070740 
	C201.007492,300.989899 200.912964,300.831024 200.941650,300.378632 
	C200.955887,280.323212 200.941467,260.720184 201.386963,241.080887 
	C204.904037,241.032974 207.961182,241.021317 211.001099,241.003296 
	C210.983871,240.996933 210.986176,240.959198 210.986176,240.959198 
z"/>
<path fill="#996F29" opacity="1.000000" stroke="none" 
	d="
M130.856750,30.851347 
	C130.856750,27.745275 130.856750,24.639204 130.856750,21.271437 
	C147.741943,21.271437 163.954666,21.271437 181.034241,21.271437 
	C181.034241,24.154274 181.034241,27.057207 181.007477,30.488728 
	C180.980728,31.017315 180.817825,31.182892 180.365417,31.119806 
	C163.669617,31.098547 147.426239,31.140375 131.101242,31.099579 
	C131.019623,31.016958 130.856750,30.851347 130.856750,30.851347 
z"/>
<path fill="#658825" opacity="1.000000" stroke="none" 
	d="
M200.921860,310.858582 
	C187.948059,310.893250 174.974274,310.927948 161.515900,310.467621 
	C161.021484,306.981110 161.011627,303.989594 161.470276,300.998718 
	C174.930176,300.943237 187.921570,300.887115 200.912964,300.831024 
	C200.912964,300.831024 201.007492,300.989899 201.020142,301.506653 
	C200.995804,304.968475 200.958832,307.913544 200.921860,310.858582 
z"/>
<path fill="#996F29" opacity="1.000000" stroke="none" 
	d="
M101.000893,240.972626 
	C91.265877,240.955719 81.539665,240.955719 70.990189,240.955719 
	C70.990189,237.846405 70.990189,234.958282 70.974991,231.624237 
	C70.959801,231.178314 70.932343,230.927826 71.434258,230.915161 
	C81.567589,230.929077 91.198997,230.955673 100.881950,231.434631 
	C100.947876,234.922302 100.962257,237.957565 100.976639,240.992844 
	C100.976639,240.992844 101.009705,240.989532 101.000893,240.972626 
z"/>
<path fill="#996F29" opacity="1.000000" stroke="none" 
	d="
M241.065704,231.061981 
	C241.148575,234.238129 241.148575,237.332916 241.148575,240.991440 
	C230.988632,240.991440 221.457123,240.991440 211.455902,240.975311 
	C210.986176,240.959198 210.983871,240.996933 210.995483,240.547089 
	C211.063065,237.061523 211.119049,234.025833 211.632706,230.993515 
	C221.666077,230.937088 231.241776,230.877274 240.817474,230.817474 
	C240.817474,230.817474 240.982834,230.980621 241.065704,231.061981 
z"/>
<path fill="#996F29" opacity="1.000000" stroke="none" 
	d="
M110.962517,40.819904 
	C110.962517,37.827824 110.962517,34.835747 110.962517,30.965034 
	C117.450752,30.965034 123.697754,30.965034 130.400757,30.908192 
	C130.856750,30.851347 131.019623,31.016958 131.038635,31.540531 
	C131.057663,34.928143 131.057663,37.792183 131.057663,41.307655 
	C123.750793,41.307655 117.386421,41.307655 110.977692,41.189316 
	C110.933342,41.070976 110.962517,40.819904 110.962517,40.819904 
z"/>
<path fill="#996F29" opacity="1.000000" stroke="none" 
	d="
M181.062012,30.934361 
	C187.514542,30.851408 193.885773,30.851408 201.034256,30.851408 
	C201.034256,34.198181 201.034256,37.079197 201.007416,40.488682 
	C200.980576,41.017155 200.817459,41.182526 200.365051,41.119671 
	C193.703918,41.056816 187.495209,41.056816 180.817825,41.056816 
	C180.817825,37.117451 180.817825,34.150169 180.817825,31.182892 
	C180.817825,31.182892 180.980728,31.017315 181.062012,30.934361 
z"/>
<path fill="#F7E489" opacity="1.000000" stroke="none" 
	d="
M100.973228,71.060257 
	C97.997154,71.034492 95.021072,71.008728 91.602066,70.971069 
	C91.159142,64.493065 91.159142,58.026955 91.159142,50.988644 
	C94.188515,50.988644 97.122925,50.988644 100.419952,51.047516 
	C100.782570,51.106392 100.925560,51.355587 100.949791,51.794884 
	C100.973763,58.509537 100.973495,64.784897 100.973228,71.060257 
z"/>
<path fill="#996F29" opacity="1.000000" stroke="none" 
	d="
M90.448959,120.925949 
	C90.938942,123.939980 90.968414,126.999634 90.528534,130.525421 
	C83.684448,131.090927 77.309708,131.190308 70.851761,131.171356 
	C70.768547,131.053024 70.987244,130.863663 70.987244,130.863663 
	C70.987244,127.780006 70.987244,124.696358 70.987244,120.971573 
	C77.617287,120.971573 83.802872,120.971573 90.448959,120.925949 
z"/>
<path fill="#F7E489" opacity="1.000000" stroke="none" 
	d="
M61.165291,150.980469 
	C61.165291,144.466019 61.165291,137.951584 61.165291,130.986328 
	C64.271477,130.986328 67.174706,130.986328 70.532593,130.924988 
	C70.987244,130.863663 70.768547,131.053024 70.868660,131.620148 
	C70.983566,138.462616 70.998367,144.737961 70.562851,151.009766 
	C67.130127,150.997620 64.147705,150.989044 61.165291,150.980469 
z"/>
<path fill="#996F29" opacity="1.000000" stroke="none" 
	d="
M241.061981,130.934296 
	C244.235062,130.851425 247.326782,130.851425 250.963577,130.851425 
	C250.963577,137.687988 250.963577,143.905411 250.467514,150.574036 
	C247.047729,151.006744 244.124008,150.988266 241.130447,150.507935 
	C240.979568,143.758224 240.898529,137.470383 240.817474,131.182526 
	C240.817474,131.182526 240.980621,131.017166 241.061981,130.934296 
z"/>
<path fill="#3E590C" opacity="1.000000" stroke="none" 
	d="
M201.382278,310.903870 
	C200.958832,307.913544 200.995804,304.968475 201.065002,301.587494 
	C204.057831,301.090057 207.018433,301.028595 210.421097,300.942017 
	C210.893021,301.244568 210.948898,301.572235 210.948898,301.899872 
	C210.949112,312.554810 212.212738,310.896362 201.382278,310.903870 
z"/>
<path fill="#3E590C" opacity="1.000000" stroke="none" 
	d="
M161.001785,300.998108 
	C161.011627,303.989594 161.021484,306.981110 161.054794,310.415588 
	C157.999298,310.888947 154.920349,310.919281 151.381577,310.904114 
	C150.947586,307.872620 150.973389,304.886658 150.999603,301.450317 
	C151.000000,301.000000 150.998138,300.998230 151.452454,300.998810 
	C154.938461,300.999023 157.970154,300.998627 161.000931,300.999115 
	C161.000000,301.000000 161.001785,300.998108 161.001785,300.998108 
z"/>
<path fill="#D0A54A" opacity="1.000000" stroke="none" 
	d="
M100.875198,50.996590 
	C100.967819,47.778225 100.967819,44.669666 100.967819,40.972359 
	C104.227379,40.972359 107.143936,40.972359 110.511505,40.896133 
	C110.962517,40.819904 110.933342,41.070976 110.971725,41.624043 
	C110.982193,50.546661 110.982010,50.543808 102.385933,51.096142 
	C101.895607,51.127644 101.412193,51.266624 100.925560,51.355583 
	C100.925560,51.355587 100.782570,51.106392 100.875198,50.996590 
z"/>
<path fill="#996F29" opacity="1.000000" stroke="none" 
	d="
M201.061981,40.934319 
	C204.206573,40.851479 207.269760,40.851479 211.035507,40.851479 
	C211.035507,44.230869 211.035507,47.098679 211.092087,50.411613 
	C211.148666,50.856743 210.983063,51.019623 210.459763,51.038654 
	C207.051636,51.057686 204.166824,51.057686 200.817459,51.057686 
	C200.817459,47.109665 200.817459,44.146095 200.817459,41.182526 
	C200.817459,41.182526 200.980576,41.017155 201.061981,40.934319 
z"/>
<path fill="#D0A54A" opacity="1.000000" stroke="none" 
	d="
M241.200287,150.969788 
	C244.124008,150.988266 247.047729,151.006744 250.409409,151.043152 
	C250.890427,154.057251 250.933487,157.053436 250.911926,160.494400 
	C247.923538,160.963303 244.999756,160.987396 241.525238,161.012909 
	C240.974472,161.014297 240.750305,160.979660 240.831482,160.533020 
	C240.858551,157.064407 240.804443,154.042419 240.862244,151.002731 
	C240.974182,150.985031 241.200287,150.969788 241.200287,150.969788 
z"/>
<path fill="#E6D066" opacity="1.000000" stroke="none" 
	d="
M61.092499,151.430084 
	C64.147705,150.989044 67.130127,150.997620 70.555618,151.002472 
	C70.998703,150.998734 70.985825,150.985840 70.990417,151.440369 
	C71.024384,154.902191 71.053749,157.909500 71.039215,160.960236 
	C70.995308,161.003662 70.906952,161.089981 70.906952,161.089981 
	C67.953018,161.055420 64.999084,161.020844 61.604214,160.978134 
	C61.115425,157.939911 61.067566,154.909805 61.092499,151.430084 
z"/>
<path fill="#E6D066" opacity="1.000000" stroke="none" 
	d="
M101.017906,141.017624 
	C101.026596,121.304504 101.035286,101.591385 101.515533,81.427361 
	C104.996109,80.989029 108.005142,81.001602 111.007080,81.007088 
	C111.000000,81.000000 110.985825,80.985825 110.990417,81.443558 
	C110.996681,82.901184 111.124863,83.919991 110.978592,84.897743 
	C110.265282,89.666016 112.112724,91.504242 117.023087,91.085663 
	C121.655151,90.690819 126.348030,91.009422 131.007080,91.007095 
	C131.000000,91.000000 130.985840,90.985825 130.990433,91.443558 
	C130.996613,92.566765 130.998581,93.232246 130.999710,93.897720 
	C131.011719,100.993477 131.011673,100.997131 137.990707,100.999146 
	C148.971115,101.002319 159.951523,101.000008 170.931931,100.999992 
	C180.969498,100.999985 180.969498,100.999977 181.007080,90.992920 
	C181.000000,91.000000 180.985840,91.014175 181.455688,91.009537 
	C184.922623,91.003265 187.919678,91.000404 190.916748,91.000221 
	C200.969528,90.999603 200.969528,90.999977 201.007080,80.992920 
	C201.000000,81.000000 200.985840,81.014175 201.437836,81.009583 
	C204.873871,80.988213 207.857941,80.971420 210.841980,80.954628 
	C210.891022,100.666832 210.940048,120.379028 210.994644,140.545258 
	C211.000214,140.999283 211.033905,140.966095 210.574738,140.977600 
	C207.246338,140.989105 204.377075,140.989105 200.842896,140.989105 
	C200.842896,144.748627 200.842896,147.801468 200.386765,150.904266 
	C193.824203,150.954193 187.717773,150.954193 180.922745,150.954193 
	C180.922745,154.703613 180.922745,157.816803 180.459503,160.953888 
	C163.692978,160.944504 147.389725,160.911224 131.058517,160.430923 
	C131.020447,158.995056 130.877701,157.986328 131.022614,157.020752 
	C131.732956,152.287933 129.873932,150.525681 125.033905,150.909256 
	C120.454926,151.272141 115.816124,150.880173 111.139214,150.382935 
	C110.862343,141.030136 110.862343,141.030243 101.973076,140.992950 
	C101.642059,140.991562 101.311050,140.984467 100.989258,140.989227 
	C100.998466,140.998413 101.017906,141.017624 101.017906,141.017624 
M160.174515,140.811798 
	C157.243149,140.811798 154.311798,140.811798 150.817444,140.811798 
	C150.817444,137.335876 150.817444,134.286118 150.817444,131.281342 
	C147.305878,131.281342 144.380432,131.281342 141.350601,131.281342 
	C141.350601,137.934647 141.350601,144.302750 141.350601,150.590820 
	C151.401978,150.590820 161.098358,150.590820 170.703400,150.590820 
	C170.703400,143.925247 170.703400,137.673264 170.703400,131.368042 
	C167.353760,131.368042 164.313141,131.368042 160.817703,131.368042 
	C160.817703,134.539658 160.817703,137.345749 160.174515,140.811798 
M131.006790,118.320602 
	C133.213715,124.046066 137.473328,119.609955 140.590332,120.981873 
	C140.590332,117.242332 140.590332,114.214935 140.590332,111.283371 
	C137.264893,111.283371 134.351532,111.283371 131.001160,111.283371 
	C131.001160,113.502815 131.001160,115.444778 131.006790,118.320602 
M173.683945,120.993370 
	C175.951477,120.993370 178.219025,120.993370 180.700653,120.993370 
	C180.700653,117.472054 180.700653,114.444962 180.700653,111.349838 
	C177.366562,111.349838 174.339355,111.349838 170.107010,111.349838 
	C171.103302,114.956520 171.933090,117.960472 173.683945,120.993370 
z"/>
<path fill="#E6D066" opacity="1.000000" stroke="none" 
	d="
M200.365051,41.119671 
	C200.817459,44.146095 200.817459,47.109665 200.817459,51.057686 
	C204.166824,51.057686 207.051636,51.057686 210.377136,51.120285 
	C210.861588,57.491440 210.905350,63.799995 210.451050,70.564072 
	C199.540253,71.031242 201.165985,70.083794 200.995651,80.022041 
	C200.989975,80.352707 200.989014,80.683464 200.985840,81.014175 
	C200.985840,81.014175 201.000000,81.000000 200.537109,80.997620 
	C197.077164,80.996834 194.080124,80.999596 191.083084,80.999779 
	C181.030472,81.000366 181.030472,81.000023 180.985840,91.014175 
	C180.985840,91.014175 181.000000,91.000000 180.536926,90.997620 
	C163.711182,90.992096 147.348511,90.988960 130.985840,90.985825 
	C130.985840,90.985825 131.000000,91.000000 131.002411,90.549225 
	C131.003189,89.098572 130.875076,88.079773 131.021362,87.102020 
	C131.734848,82.333473 129.886780,80.495857 124.976768,80.914345 
	C120.344734,81.309135 115.651909,80.990585 110.985825,80.985825 
	C110.985825,80.985825 111.000000,81.000000 111.002419,80.549454 
	C110.853874,69.885345 112.346634,71.090248 101.914246,71.005173 
	C101.589066,71.002525 101.263794,71.009521 100.938568,71.012024 
	C100.938568,71.012024 100.990570,71.008102 100.981903,71.034180 
	C100.973495,64.784897 100.973763,58.509537 100.949791,51.794880 
	C101.412193,51.266624 101.895607,51.127644 102.385933,51.096142 
	C110.982010,50.543808 110.982193,50.546661 111.016083,41.742382 
	C117.386421,41.307655 123.750793,41.307655 131.057663,41.307655 
	C131.057663,37.792183 131.057663,34.928143 131.120270,31.623152 
	C147.426239,31.140375 163.669617,31.098547 180.365417,31.119806 
	C180.817825,34.150169 180.817825,37.117451 180.817825,41.056816 
	C187.495209,41.056816 193.703918,41.056816 200.365051,41.119671 
z"/>
<path fill="#E6D066" opacity="1.000000" stroke="none" 
	d="
M240.365082,131.119675 
	C240.898529,137.470383 240.979568,143.758224 241.130447,150.507935 
	C241.200287,150.969788 240.974182,150.985031 240.415024,150.996704 
	C230.319748,151.000870 220.783630,150.993362 211.163025,150.541962 
	C211.063660,147.054062 211.048782,144.010086 211.033905,140.966095 
	C211.033905,140.966095 211.000214,140.999283 210.983124,141.015808 
	C214.066391,141.032349 217.166733,141.032349 220.679016,141.032349 
	C220.885040,137.648361 221.061401,134.751877 221.286362,131.056824 
	C227.528152,131.056824 233.720413,131.056824 240.365082,131.119675 
z"/>
<path fill="#F7E489" opacity="1.000000" stroke="none" 
	d="
M201.437836,81.009583 
	C200.989014,80.683464 200.989975,80.352707 200.995651,80.022041 
	C201.165985,70.083794 199.540253,71.031242 210.397491,71.032516 
	C210.881226,74.050636 210.920425,77.055832 210.900818,80.507828 
	C207.857941,80.971420 204.873871,80.988213 201.437836,81.009583 
z"/>
<path fill="#8EBB3C" opacity="1.000000" stroke="none" 
	d="
M150.999115,300.999054 
	C139.348770,300.998535 127.696686,300.858612 116.051353,301.077698 
	C112.130104,301.151428 110.878082,299.945953 110.920235,295.979004 
	C111.111183,278.007568 111.014694,260.033081 111.063858,241.544662 
	C111.106033,241.029617 111.052238,240.919998 111.514694,240.950836 
	C124.972282,241.040634 137.967422,241.099594 150.973587,241.617126 
	C150.989120,261.716553 150.993637,281.357391 150.998138,300.998230 
	C150.998138,300.998230 151.000000,301.000000 150.999115,300.999054 
z"/>
<path fill="#3E590C" opacity="1.000000" stroke="none" 
	d="
M101.433495,240.994873 
	C100.962257,237.957565 100.947876,234.922302 100.926170,231.372177 
	C100.918854,230.857330 101.064407,230.904709 101.510406,230.938507 
	C104.930611,231.024033 107.904823,231.075760 110.918961,231.570221 
	C110.990005,234.981964 111.021126,237.950989 111.052238,240.919998 
	C111.052238,240.919998 111.106033,241.029617 111.079330,241.085052 
	C107.998543,241.092636 104.944443,241.044769 101.433495,240.994873 
z"/>
<path fill="#E6D066" opacity="1.000000" stroke="none" 
	d="
M100.874634,230.919800 
	C91.198997,230.955673 81.567589,230.929077 71.478928,230.797333 
	C71.004341,207.797302 70.987007,184.902420 70.938309,161.548752 
	C70.906952,161.089981 70.995308,161.003662 71.498077,160.988800 
	C81.609886,160.958252 91.218933,160.942551 100.900238,161.395996 
	C101.003136,184.878326 101.033775,207.891510 101.064407,230.904709 
	C101.064407,230.904709 100.918854,230.857330 100.874634,230.919800 
z"/>
<path fill="#E6D066" opacity="1.000000" stroke="none" 
	d="
M71.005936,151.006027 
	C70.998367,144.737961 70.983566,138.462616 70.951874,131.738464 
	C77.309708,131.190308 83.684448,131.090927 90.526993,130.980957 
	C90.995956,131.295395 90.994705,131.620438 90.998581,131.945435 
	C91.122269,142.315140 89.778244,140.853592 100.559845,141.011810 
	C101.017906,141.017624 100.998466,140.998413 100.995781,141.446396 
	C100.895348,144.940384 100.797600,147.986389 100.250107,151.022995 
	C90.195511,151.004349 80.590668,150.995087 70.985825,150.985840 
	C70.985825,150.985840 70.998703,150.998734 71.005936,151.006027 
z"/>
<path fill="#F7E489" opacity="1.000000" stroke="none" 
	d="
M100.959183,71.463760 
	C101.263794,71.009521 101.589066,71.002525 101.914246,71.005173 
	C112.346634,71.090248 110.853874,69.885345 111.009506,80.556541 
	C108.005142,81.001602 104.996109,80.989029 101.542747,80.955299 
	C101.058876,77.927925 101.019341,74.921715 100.959183,71.463760 
z"/>
<path fill="#E6D066" opacity="1.000000" stroke="none" 
	d="
M240.880341,230.364899 
	C231.241776,230.877274 221.666077,230.937088 211.587952,230.929840 
	C211.085510,230.862778 210.935593,230.904709 210.962860,230.445404 
	C211.050797,206.966797 211.111435,183.947510 211.629501,160.948532 
	C221.641388,160.972443 231.195847,160.976044 240.750305,160.979660 
	C240.750305,160.979660 240.974472,161.014297 241.087860,161.021576 
	C241.115219,183.990021 241.029221,206.951187 240.880341,230.364899 
z"/>
<path fill="#8EBB3C" opacity="1.000000" stroke="none" 
	d="
M200.941650,300.378632 
	C187.921570,300.887115 174.930176,300.943237 161.470276,300.998718 
	C161.001785,300.998108 161.000000,301.000000 161.000305,300.530579 
	C161.012863,280.427002 161.025101,260.792786 161.500488,241.097748 
	C174.973053,240.992783 187.982468,240.948669 200.949707,240.949768 
	C200.907532,240.994995 200.927048,241.117142 200.927048,241.117142 
	C200.941467,260.720184 200.955887,280.323212 200.941650,300.378632 
z"/>
<path fill="#3E590C" opacity="1.000000" stroke="none" 
	d="
M211.130280,230.926453 
	C211.119049,234.025833 211.063065,237.061523 211.012711,240.553436 
	C207.961182,241.021317 204.904037,241.032974 201.386963,241.080887 
	C200.927048,241.117142 200.907532,240.994995 200.953018,240.506104 
	C201.039307,237.053970 201.080093,234.090714 201.562897,231.084274 
	C204.981781,230.995636 207.958694,230.950180 210.935593,230.904724 
	C210.935593,230.904709 211.085510,230.862778 211.130280,230.926453 
z"/>
<path fill="#658825" opacity="1.000000" stroke="none" 
	d="
M161.037338,241.158600 
	C161.025101,260.792786 161.012863,280.427002 161.001251,300.529724 
	C157.970154,300.998627 154.938461,300.999023 151.452454,300.998810 
	C150.993637,281.357391 150.989120,261.716553 151.428101,241.561844 
	C154.926849,241.084839 157.982086,241.121719 161.037338,241.158600 
z"/>
<path fill="#F7E489" opacity="1.000000" stroke="none" 
	d="
M240.831482,160.533020 
	C231.195847,160.976044 221.641388,160.972443 211.521912,160.912735 
	C210.956909,160.856628 210.850098,161.056793 210.915283,160.603271 
	C210.944305,157.113785 210.908157,154.077820 210.974319,151.084473 
	C211.076630,151.127075 211.247513,150.985870 211.247513,150.985870 
	C220.783630,150.993362 230.319748,151.000870 240.303101,151.014404 
	C240.804443,154.042419 240.858551,157.064407 240.831482,160.533020 
z"/>
<path fill="#F7E489" opacity="1.000000" stroke="none" 
	d="
M70.990417,151.440353 
	C80.590668,150.995087 90.195511,151.004349 100.345428,151.077560 
	C100.890495,151.141525 101.095238,151.061951 101.053787,151.511475 
	C101.058197,154.993011 101.104050,158.025055 101.096970,160.956436 
	C101.044029,160.855789 100.827972,160.926849 100.827972,160.926849 
	C91.218933,160.942551 81.609886,160.958252 71.541985,160.945374 
	C71.053749,157.909500 71.024384,154.902191 70.990417,151.440353 
z"/>
<path fill="#F7E489" opacity="1.000000" stroke="none" 
	d="
M130.990433,91.443558 
	C147.348511,90.988960 163.711182,90.992096 180.544006,90.990540 
	C180.969498,100.999977 180.969498,100.999985 170.931931,100.999992 
	C159.951523,101.000008 148.971115,101.002319 137.990707,100.999146 
	C131.011673,100.997131 131.011719,100.993477 130.999710,93.897720 
	C130.998581,93.232246 130.996613,92.566765 130.990433,91.443558 
z"/>
<path fill="#996F29" opacity="1.000000" stroke="none" 
	d="
M131.086456,160.877945 
	C147.389725,160.911224 163.692978,160.944504 180.497772,160.989746 
	C180.999283,161.001709 181.074692,161.074600 181.045700,161.526825 
	C181.016708,164.894012 181.016708,167.808975 181.016708,170.580978 
	C163.889221,170.580978 147.549423,170.580978 131.032547,170.580978 
	C131.032547,167.178650 131.032547,164.192322 131.048126,161.124329 
	C131.063690,161.042664 131.086456,160.877945 131.086456,160.877945 
z"/>
<path fill="#5E3F0B" opacity="1.000000" stroke="none" 
	d="
M160.496109,140.481827 
	C160.817703,137.345749 160.817703,134.539658 160.817703,131.368042 
	C164.313141,131.368042 167.353760,131.368042 170.703400,131.368042 
	C170.703400,137.673264 170.703400,143.925247 170.703400,150.590820 
	C161.098358,150.590820 151.401978,150.590820 141.350601,150.590820 
	C141.350601,144.302750 141.350601,137.934647 141.350601,131.281342 
	C144.380432,131.281342 147.305878,131.281342 150.817444,131.281342 
	C150.817444,134.286118 150.817444,137.335876 150.817444,140.811798 
	C154.311798,140.811798 157.243149,140.811798 160.496109,140.481827 
z"/>
<path fill="#996F29" opacity="1.000000" stroke="none" 
	d="
M180.961014,160.965851 
	C180.922745,157.816803 180.922745,154.703613 180.922745,150.954193 
	C187.717773,150.954193 193.824203,150.954193 200.458939,150.972778 
	C200.987244,150.991364 201.130142,151.129822 201.082062,151.570496 
	C201.021240,154.953125 201.008484,157.895081 200.922058,160.849487 
	C200.848404,160.861938 200.807892,161.005753 200.355942,161.002441 
	C193.627563,161.024277 187.351120,161.049438 181.074692,161.074600 
	C181.074692,161.074600 180.999283,161.001709 180.961014,160.965851 
z"/>
<path fill="#F7E489" opacity="1.000000" stroke="none" 
	d="
M110.990417,81.443558 
	C115.651909,80.990585 120.344734,81.309135 124.976768,80.914345 
	C129.886780,80.495857 131.734848,82.333473 131.021362,87.102020 
	C130.875076,88.079773 131.003189,89.098572 131.009491,90.556320 
	C126.348030,91.009422 121.655151,90.690819 117.023087,91.085663 
	C112.112724,91.504242 110.265282,89.666016 110.978592,84.897743 
	C111.124863,83.919991 110.996681,82.901184 110.990417,81.443558 
z"/>
<path fill="#F7E489" opacity="1.000000" stroke="none" 
	d="
M181.455688,91.009537 
	C181.030472,81.000023 181.030472,81.000366 191.083084,80.999779 
	C194.080124,80.999596 197.077164,80.996834 200.544189,80.990540 
	C200.969528,90.999977 200.969528,90.999603 190.916748,91.000221 
	C187.919678,91.000404 184.922623,91.003265 181.455688,91.009537 
z"/>
<path fill="#D0A54A" opacity="1.000000" stroke="none" 
	d="
M111.203629,150.820206 
	C115.816124,150.880173 120.454926,151.272141 125.033905,150.909256 
	C129.873932,150.525681 131.732956,152.287933 131.022614,157.020752 
	C130.877701,157.986328 131.020447,158.995056 131.058517,160.430923 
	C131.086456,160.877945 131.063690,161.042664 130.581009,161.041214 
	C123.796875,161.028458 117.495430,161.017151 111.169823,160.928528 
	C111.145668,160.851196 110.983810,160.858978 110.991058,160.420532 
	C110.966103,157.020889 110.933891,154.059692 110.976440,151.028137 
	C111.051193,150.957764 111.203629,150.820206 111.203629,150.820206 
z"/>
<path fill="#5E3F0B" opacity="1.000000" stroke="none" 
	d="
M131.003967,117.853668 
	C131.001160,115.444778 131.001160,113.502815 131.001160,111.283371 
	C134.351532,111.283371 137.264893,111.283371 140.590332,111.283371 
	C140.590332,114.214935 140.590332,117.242332 140.590332,120.981873 
	C137.473328,119.609955 133.213715,124.046066 131.003967,117.853668 
z"/>
<path fill="#5E3F0B" opacity="1.000000" stroke="none" 
	d="
M173.223419,120.978897 
	C171.933090,117.960472 171.103302,114.956520 170.107010,111.349838 
	C174.339355,111.349838 177.366562,111.349838 180.700653,111.349838 
	C180.700653,114.444962 180.700653,117.472054 180.700653,120.993370 
	C178.219025,120.993370 175.951477,120.993370 173.223419,120.978897 
z"/>
<path fill="#996F29" opacity="1.000000" stroke="none" 
	d="
M210.574738,140.977600 
	C211.048782,144.010086 211.063660,147.054062 211.163025,150.541962 
	C211.247513,150.985870 211.076630,151.127075 210.531342,151.068375 
	C207.034088,151.049728 204.082123,151.089783 201.130142,151.129822 
	C201.130142,151.129822 200.987244,150.991364 200.915070,150.922852 
	C200.842896,147.801468 200.842896,144.748627 200.842896,140.989105 
	C204.377075,140.989105 207.246338,140.989105 210.574738,140.977600 
z"/>
<path fill="#D0A54A" opacity="1.000000" stroke="none" 
	d="
M100.795174,151.086960 
	C100.797600,147.986389 100.895348,144.940384 100.986572,141.437195 
	C101.311050,140.984467 101.642059,140.991562 101.973076,140.992950 
	C110.862343,141.030243 110.862343,141.030136 111.139214,150.382935 
	C111.203629,150.820206 111.051193,150.957764 110.533012,150.987946 
	C107.041634,151.032745 104.068436,151.047348 101.095238,151.061951 
	C101.095238,151.061951 100.890495,151.141525 100.795174,151.086960 
z"/>
<path fill="#093C7B" opacity="1.000000" stroke="none" 
	d="
M161.500488,241.097748 
	C157.982086,241.121719 154.926849,241.084839 151.417084,241.103256 
	C137.967422,241.099594 124.972282,241.040634 111.514694,240.950836 
	C111.021126,237.950989 110.990005,234.981964 110.983521,231.503540 
	C111.008163,230.994141 111.137985,230.861786 111.593628,230.907974 
	C141.653442,230.923447 171.257614,230.892746 200.926773,230.928192 
	C200.991760,230.994339 201.120895,231.127457 201.120895,231.127457 
	C201.080093,234.090714 201.039307,237.053970 200.995178,240.460876 
	C187.982468,240.948669 174.973053,240.992783 161.500488,241.097748 
z"/>
<path fill="#093C7B" opacity="1.000000" stroke="none" 
	d="
M101.510406,230.938507 
	C101.033775,207.891510 101.003136,184.878326 100.900238,161.395996 
	C100.827972,160.926849 101.044029,160.855789 101.541626,160.940765 
	C105.020752,160.970154 108.002281,160.914566 110.983810,160.858978 
	C110.983810,160.858978 111.145668,160.851196 111.104973,161.388977 
	C111.088852,184.905090 111.113419,207.883438 111.137985,230.861786 
	C111.137985,230.861786 111.008163,230.994141 110.943604,231.060822 
	C107.904823,231.075760 104.930611,231.024033 101.510406,230.938507 
z"/>
<path fill="#093C7B" opacity="1.000000" stroke="none" 
	d="
M210.962860,230.445404 
	C207.958694,230.950180 204.981781,230.995636 201.562897,231.084274 
	C201.120895,231.127457 200.991760,230.994339 200.972961,230.472534 
	C200.905396,206.969086 200.856644,183.987411 200.807892,161.005753 
	C200.807892,161.005753 200.848404,160.861938 201.367874,160.901031 
	C204.874924,160.979019 207.862518,161.017899 210.850098,161.056793 
	C210.850098,161.056793 210.956909,160.856628 211.064484,160.892426 
	C211.111435,183.947510 211.050797,206.966797 210.962860,230.445404 
z"/>
<path fill="#002E66" opacity="1.000000" stroke="none" 
	d="
M210.915283,160.603271 
	C207.862518,161.017899 204.874924,160.979019 201.441528,160.888580 
	C201.008484,157.895081 201.021240,154.953125 201.082062,151.570496 
	C204.082123,151.089783 207.034088,151.049728 210.429047,151.025757 
	C210.908157,154.077820 210.944305,157.113785 210.915283,160.603271 
z"/>
<path fill="#002E66" opacity="1.000000" stroke="none" 
	d="
M110.991058,160.420532 
	C108.002281,160.914566 105.020752,160.970154 101.594559,161.041412 
	C101.104050,158.025055 101.058197,154.993011 101.053787,151.511459 
	C104.068436,151.047348 107.041634,151.032745 110.458252,151.058319 
	C110.933891,154.059692 110.966103,157.020889 110.991058,160.420532 
z"/>
<path fill="#2271D0" opacity="1.000000" stroke="none" 
	d="
M200.355942,161.002441 
	C200.856644,183.987411 200.905396,206.969086 200.907959,230.406403 
	C171.257614,230.892746 141.653442,230.923447 111.593628,230.907974 
	C111.113419,207.883438 111.088852,184.905090 111.129128,161.466309 
	C117.495430,161.017151 123.796875,161.028458 130.565430,161.122894 
	C131.032547,164.192322 131.032547,167.178650 131.032547,170.580978 
	C147.549423,170.580978 163.889221,170.580978 181.016708,170.580978 
	C181.016708,167.808975 181.016708,164.894012 181.045700,161.526825 
	C187.351120,161.049438 193.627563,161.024277 200.355942,161.002441 
z"/>
</svg>