# Blender 4.3.2
# www.blender.org
mtllib car1.mtl
o Cube
v -0.625000 -0.486785 1.438870
v -0.625000 0.050566 1.491108
v -0.625000 -0.484641 -1.375786
v -0.625000 0.150444 -1.500000
v 0.625000 -0.486785 1.438870
v 0.625000 0.050566 1.491108
v 0.625000 -0.484641 -1.375786
v 0.625000 0.150444 -1.500000
v -0.625000 -0.500000 0.583957
v -0.625000 0.230196 0.592849
v 0.625000 -0.500000 0.583957
v 0.625000 0.230196 0.592849
v -0.625000 0.150444 -1.003487
v 0.625000 -0.500000 -1.003487
v -0.625000 -0.500000 -1.003487
v 0.625000 0.150444 -1.003487
v -0.625000 -0.500000 0.339197
v 0.504847 0.500000 0.339197
v -0.504847 0.500000 0.339197
v 0.625000 -0.500000 0.339197
v -0.504847 0.500000 -0.769217
v 0.625000 -0.500000 -0.769217
v -0.625000 -0.500000 -0.769217
v 0.504847 0.500000 -0.769217
v 0.625000 0.150694 -0.769217
v 0.625000 0.151876 0.339197
v 0.625000 0.152146 0.591899
v -0.625000 0.150685 -0.769217
v -0.625000 0.152086 0.591898
v -0.625000 0.151826 0.339197
v 0.625000 -0.222209 -1.506117
v -0.625000 -0.219861 -1.507282
v -0.625000 -0.236502 1.557294
v 0.625000 -0.239088 1.556070
vn -1.0000 -0.0000 -0.0000
vn -0.0000 -0.4448 -0.8956
vn 1.0000 -0.0000 -0.0000
vn -0.0000 -0.4277 0.9039
vn -0.0000 -0.9999 0.0155
vn -0.0000 0.9806 0.1961
vn -0.0000 0.6850 0.7286
vn -0.0000 -1.0000 -0.0000
vn -0.0000 -0.9992 -0.0412
vn -0.0000 1.0000 -0.0000
vn -0.0000 0.5567 -0.8307
vn 0.9591 0.2706 -0.0835
vn 0.9456 0.3253 -0.0003
vn 0.9455 0.3258 -0.0002
vn -0.9455 0.3257 -0.0002
vn -0.9456 0.3253 -0.0003
vn -0.9591 0.2705 -0.0836
vn 0.0005 0.0180 -0.9998
vn 0.0007 0.2217 0.9751
vt 0.687500 0.250000
vt 0.687500 0.335938
vt 0.750000 0.335938
vt 0.750000 0.289060
vt 0.750000 0.250000
vt 1.000000 0.250000
vt 1.000000 0.289060
vt 0.843750 0.288713
vt 0.843750 0.250000
vt 0.484375 0.250000
vt 0.484375 0.335938
vt 0.484375 0.343750
vt 0.375000 0.328125
vt 0.375000 0.288879
vt 0.375000 0.250000
vt 0.250000 0.250000
vt 0.250000 0.288879
vt 0.093750 0.289285
vt 0.093750 0.250000
vt 0.125000 0.671875
vt 0.375000 0.671875
vt 0.375000 0.750000
vt 0.125000 0.750000
vt 0.484375 0.468750
vt 0.484375 0.625000
vt 0.367188 0.625000
vt 0.367188 0.468750
vt 0.226562 0.382812
vt 0.117188 0.382812
vt 0.101562 0.335938
vt 0.242188 0.335938
vt 0.125000 0.656250
vt 0.375000 0.656250
vt 0.515625 0.250000
vt 0.515625 0.335938
vt 0.375000 0.289285
vt 0.750000 0.288713
vt 0.125000 0.500000
vt 0.375000 0.500000
vt 0.375000 0.539062
vt 0.125000 0.539062
vt 0.742188 0.468750
vt 0.742188 0.625000
vt 0.679688 0.625000
vt 0.679688 0.468750
vt 0.656250 0.250000
vt 0.656250 0.335938
vt 0.125000 0.562500
vt 0.375000 0.562500
vt 0.648438 0.484375
vt 0.648438 0.609375
vt 0.523438 0.609375
vt 0.523438 0.484375
vt 0.851562 0.335938
vt 0.992188 0.335938
vt 0.976562 0.382812
vt 0.867188 0.382812
vt 0.484078 0.336714
vt 0.515311 0.336577
vt 0.515311 0.382812
vt 0.484078 0.347092
vt 0.656250 0.382812
vt 0.515625 0.382812
vt 0.515311 0.336571
vt 0.484078 0.336706
vt 1.000000 0.335938
vt 0.843750 0.335938
vt 0.250000 0.328125
vt 0.093750 0.328125
s 0
usemtl Material.001
f 15/1/1 13/2/1 4/3/1 32/4/1 3/5/1
f 3/6/2 32/7/2 31/8/2 7/9/2
f 11/10/3 27/11/3 12/12/3 6/13/3 34/14/3 5/15/3
f 5/16/4 34/17/4 33/18/4 1/19/4
f 9/20/5 11/21/5 5/22/5 1/23/5
f 12/24/6 10/25/6 2/26/6 6/27/6
f 18/28/7 19/29/7 10/30/7 12/31/7
f 17/32/8 20/33/8 11/21/8 9/20/8
f 20/34/3 26/35/3 27/11/3 11/10/3
f 1/15/1 33/36/1 2/13/1 10/12/1 29/11/1 9/10/1
f 7/5/3 31/37/3 8/3/3 16/2/3 14/1/3
f 3/38/9 7/39/9 14/40/9 15/41/9
f 8/42/10 4/43/10 13/44/10 16/45/10
f 23/46/1 28/47/1 13/2/1 15/1/1
f 9/10/1 29/11/1 30/35/1 17/34/1
f 22/46/3 25/47/3 26/35/3 20/34/3
f 23/48/8 22/49/8 20/33/8 17/32/8
f 24/50/10 21/51/10 19/52/10 18/53/10
f 16/54/11 13/55/11 21/56/11 24/57/11
f 15/41/8 14/40/8 22/49/8 23/48/8
f 14/1/3 16/2/3 25/47/3 22/46/3
f 17/34/1 30/35/1 28/47/1 23/46/1
f 27/58/12 26/59/12 18/60/12 12/61/12
f 25/47/13 16/2/13 24/62/13
f 26/35/14 25/47/14 24/62/14 18/63/14
f 28/47/15 30/35/15 19/63/15 21/62/15
f 13/2/16 28/47/16 21/62/16
f 30/64/17 29/65/17 10/61/17 19/60/17
f 31/8/18 32/7/18 4/66/18 8/67/18
f 33/18/19 34/17/19 6/68/19 2/69/19
